<?xml version="1.0" encoding="UTF-8"?>
<svg version="1.1" xmlns="http://www.w3.org/2000/svg" width="1024" height="1024">
<path d="M0 0 C3.73349986 0.00512085 7.46698346 -0.00146503 11.20048095 -0.00648667 C17.72983665 -0.01367847 24.25915922 -0.01351044 30.78851641 -0.00839235 C40.49829313 -0.00080208 50.20804209 -0.00470798 59.91781864 -0.01080896 C77.2638151 -0.0213229 94.60979679 -0.0204346 111.95579464 -0.01465113 C127.1370732 -0.00961447 142.31834635 -0.00830921 157.49962557 -0.01069642 C158.50773278 -0.01084919 159.51583998 -0.01100196 160.55449589 -0.01115936 C164.64704151 -0.01178207 168.73958713 -0.01241887 172.83213275 -0.01307889 C211.20368181 -0.01919337 249.57522148 -0.01365571 287.94676909 -0.0028851 C322.01269083 0.00660427 356.07859761 0.00575766 390.14451922 -0.00380708 C428.44412728 -0.01452465 466.74372705 -0.01875825 505.0433364 -0.01258255 C509.12892481 -0.01194115 513.21451323 -0.01131547 517.30010165 -0.01069642 C518.30602995 -0.01053827 519.31195826 -0.01038011 520.34836925 -0.01021717 C535.51604647 -0.00794551 550.68371768 -0.01059667 565.85139407 -0.01565553 C583.10521081 -0.02138159 600.35901052 -0.01992838 617.61282515 -0.00909404 C627.26036361 -0.00323524 636.90786516 -0.00281815 646.55540263 -0.01038639 C653.0098322 -0.0148898 659.46423233 -0.01204653 665.91865755 -0.00337685 C669.58926885 0.00135395 673.25980713 0.00306381 676.93041598 -0.00418882 C715.17930673 -0.07413695 715.17930673 -0.07413695 733.22117938 5.00693511 C734.18902361 5.27224028 735.15686785 5.53754546 736.1540407 5.81089019 C756.82725726 11.60748787 775.87972928 20.50234958 792.53367938 34.25693511 C793.07605242 34.69537749 793.61842547 35.13381987 794.17723406 35.58554839 C800.86897532 40.99770739 807.22723888 46.43754722 812.53367938 53.25693511 C812.96503191 53.79914702 813.39638445 54.34135894 813.84080828 54.90000151 C842.4677593 91.02061851 850.05468009 130.18743336 849.91908204 175.51317307 C849.9113471 179.2384515 849.92130011 182.96369497 849.92881204 186.68896817 C849.93956176 193.19318393 849.93937159 199.69732475 849.93167056 206.2015438 C849.92024973 215.87408496 849.9261621 225.54656375 849.93529548 235.21910459 C849.95103888 252.50149485 849.94974507 269.7838517 849.94105874 287.06624508 C849.93349478 302.19088275 849.93155 317.31550822 849.93512667 332.44014739 C849.93535583 333.44566145 849.93558498 334.4511755 849.93582108 335.48715968 C849.93675519 339.56946295 849.9377104 343.65176621 849.93870037 347.73406947 C849.94786544 385.98394949 849.93957595 424.23380831 849.92340968 462.48368506 C849.9091742 496.42324982 849.91044814 530.3627808 849.92479266 564.30234526 C849.94087674 602.48486043 849.9472153 640.66735688 849.93795587 678.84987496 C849.9369938 682.92449091 849.93605527 686.99910687 849.93512667 691.07372283 C849.93477082 692.57849664 849.93477082 692.57849664 849.93440779 694.11366992 C849.9310037 709.22416919 849.93497062 724.33465488 849.94256533 739.44515227 C849.9511631 756.63644811 849.94895612 773.8277055 849.9327231 791.01899659 C849.92394983 800.62554333 849.92328741 810.23200669 849.93466162 819.83855117 C849.94143485 826.27179406 849.93711978 832.70497069 849.92414732 839.13820383 C849.91707579 842.79251332 849.91443292 846.44665832 849.92536526 850.10096209 C849.98318481 870.95726729 849.46325605 892.0342 843.78367938 912.25693511 C843.52908953 913.19569487 843.27449969 914.13445464 843.012195 915.10166167 C839.4936164 927.57003887 834.09905777 939.09919358 827.53367938 950.25693511 C827.03610125 951.12318511 826.53852313 951.98943511 826.02586688 952.88193511 C807.15589815 984.24072372 773.10185261 1009.38130115 737.53367938 1018.25693511 C720.96310414 1021.97960286 704.90505733 1024.41500073 687.90898169 1024.38836287 C686.06208979 1024.39144182 686.06208979 1024.39144182 684.17788694 1024.39458298 C680.77581317 1024.39924631 677.37379253 1024.39948494 673.97171954 1024.39780539 C670.26435271 1024.3970705 666.55699282 1024.40210608 662.84962899 1024.4063804 C655.50335929 1024.41393979 648.15709686 1024.41615241 640.81082367 1024.41670946 C632.00820074 1024.41762515 623.20558449 1024.42429882 614.40296445 1024.43105628 C593.12886376 1024.44709824 571.85476379 1024.4530177 550.58065814 1024.45780503 C540.5105872 1024.46014298 530.44051682 1024.46374587 520.37044633 1024.46750041 C485.87956135 1024.48033487 451.38867668 1024.49105371 416.89778937 1024.49450301 C414.73358538 1024.49472464 412.56938139 1024.49494642 410.40517741 1024.49516836 C408.23583183 1024.495389 406.06648626 1024.49560948 403.89714069 1024.49582981 C399.54527403 1024.49627235 395.19340737 1024.49671947 390.8415407 1024.49716948 C389.76253487 1024.49727887 388.68352905 1024.49738827 387.57182607 1024.49750097 C352.60077111 1024.50112999 317.6297369 1024.5170447 282.65868989 1024.54035985 C245.65991046 1024.56498164 208.66114288 1024.57867696 171.66235502 1024.57987093 C167.59708548 1024.58004237 163.53181595 1024.5802578 159.46654643 1024.58050536 C158.46560883 1024.58056113 157.46467124 1024.5806169 156.43340221 1024.58067436 C140.35727308 1024.58182281 124.28116533 1024.59282734 108.20504341 1024.60739242 C92.03128768 1024.621792 75.85755922 1024.62497492 59.68379884 1024.61695244 C50.08842282 1024.61251234 40.49313508 1024.61629154 30.89777075 1024.63219094 C24.47152108 1024.64200029 18.04533269 1024.64070642 11.61908347 1024.63075472 C7.968532 1024.6254052 4.31814901 1024.62451262 0.66761206 1024.63726344 C-20.18233316 1024.70552346 -41.24991506 1024.18644734 -61.46632062 1018.50693511 C-62.40798078 1018.25089507 -63.34964094 1017.99485503 -64.31983625 1017.7310562 C-72.75792324 1015.34544163 -80.63835098 1012.18426423 -88.46632062 1008.25693511 C-89.4323924 1007.78102935 -89.4323924 1007.78102935 -90.41798078 1007.29550933 C-99.03257899 1003.01910601 -106.88877634 998.22126906 -114.46632062 992.25693511 C-115.35706281 991.5698648 -116.247805 990.88279448 -117.16553937 990.17490386 C-149.43098314 964.62950972 -168.56260625 928.31608764 -173.53205835 887.64088057 C-174.97756122 875.02178232 -174.75135949 862.33487602 -174.72945709 849.65201317 C-174.72524277 845.91585198 -174.73271336 842.17970962 -174.7386096 838.4435532 C-174.74732987 831.91099045 -174.74869867 825.37845906 -174.74510633 818.84589194 C-174.73977832 809.1311978 -174.74591564 799.41653378 -174.75418926 789.70184291 C-174.7693997 771.33849601 -174.77113739 752.97516294 -174.76866624 734.61181106 C-174.76683097 720.42812076 -174.76859807 706.24443497 -174.77289068 692.06074523 C-174.77349309 690.02034286 -174.77409429 687.97994049 -174.77469428 685.93953812 C-174.77560157 682.86455171 -174.77651024 679.78956529 -174.77742663 676.71457887 C-174.7858517 648.13863368 -174.79019493 619.56269018 -174.78601991 590.98674392 C-174.78586354 589.91031616 -174.78570716 588.8338884 -174.78554605 587.72484162 C-174.78474031 582.26953415 -174.78389453 576.81422669 -174.78303274 571.35891922 C-174.78277611 569.73386357 -174.78277611 569.73386357 -174.7825143 568.0759785 C-174.78216764 565.88514263 -174.78181911 563.69430676 -174.78146871 561.50347089 C-174.77611201 527.41721305 -174.7840423 493.33098109 -174.80250227 459.24472808 C-174.82323581 420.91578408 -174.83394243 382.58685611 -174.82992678 344.25790619 C-174.82953146 340.16806681 -174.8291699 336.07822743 -174.8288294 331.98838805 C-174.82873867 330.98142536 -174.82864793 329.97446267 -174.82855445 328.93698596 C-174.82739038 313.7616643 -174.8340223 298.58635886 -174.84464132 283.41104125 C-174.85671136 266.14488596 -174.85823148 248.87876632 -174.84585115 231.61261048 C-174.83923983 221.96123602 -174.84081362 212.30994692 -174.85443967 202.65857935 C-174.86272162 196.19779958 -174.85993832 189.73708333 -174.8484644 183.27630866 C-174.84224488 179.60452189 -174.84051019 175.93290089 -174.85232773 172.26112409 C-174.99602387 124.2706222 -164.55084691 80.75083334 -130.01710187 45.77646636 C-108.5111373 24.53397455 -82.77901277 10.847163 -53.40382062 4.00693511 C-52.75695295 3.85547026 -52.11008527 3.70400542 -51.44361555 3.54795073 C-34.41187373 -0.10510271 -17.3305861 -0.03417536 0 0 Z " fill="#FC5901" transform="translate(174.46632062457502,-0.25693510845303535)"/>
<path d="M0 0 C72.98554217 0 72.98554217 0 92 13 C92.77214844 13.52464844 93.54429687 14.04929687 94.33984375 14.58984375 C108.25815599 24.70143812 115.03294391 39.28948592 118.59765625 55.76171875 C121.33192222 77.76857789 117.82363942 98.62837237 105 117 C92.09366563 132.67647443 75.53556925 138.81380659 56 143 C37.52 143 19.04 143 0 143 C0 95.81 0 48.62 0 0 Z " fill="#FDFBFA" transform="translate(701,759)"/>
<path d="M0 0 C76.57116337 0 76.57116337 0 90.796875 13.5546875 C97.9467876 21.4905834 99.38846288 28.96098371 99.26953125 39.39453125 C98.55633403 48.9348361 93.92587557 55.62618697 87 62 C82.87511507 65.19828035 80.31202263 67 75 67 C75 67.66 75 68.32 75 69 C75.87785156 69.11214844 76.75570312 69.22429687 77.66015625 69.33984375 C86.66666723 71.12007808 93.84525074 76.54770536 99 84 C103.79830475 91.83723109 103.85078464 102.56489393 102.3125 111.4375 C99.70502713 121.86739149 94.32044879 129.22578202 85.125 134.75 C59.14324391 149.00011653 29.00302824 143 0 143 C0 95.81 0 48.62 0 0 Z " fill="#FDFBFA" transform="translate(836,759)"/>
<path d="M0 0 C8.58 0 17.16 0 26 0 C26.33 17.16 26.66 34.32 27 52 C29.31 49.69 31.62 47.38 34 45 C41.77111494 38.66798042 49.5200761 36.43306133 59.5 36.5625 C60.33442627 36.57152344 61.16885254 36.58054687 62.02856445 36.58984375 C70.63849657 36.83287624 75.88831068 38.85490995 82.3125 44.625 C89.4710677 52.25415083 91.16408736 61.68360545 91.11352539 71.81958008 C91.11367142 72.59084229 91.11381744 73.36210449 91.1139679 74.15673828 C91.11327378 76.694365 91.10550492 79.23191742 91.09765625 81.76953125 C91.09579029 83.53358419 91.09436723 85.29763764 91.09336853 87.06169128 C91.08955738 91.6960494 91.07973909 96.33037599 91.06866455 100.96472168 C91.05842026 105.69717991 91.05386445 110.42964325 91.04882812 115.16210938 C91.03811554 124.4414223 91.02053012 133.72070359 91 143 C82.42 143 73.84 143 65 143 C64.9906543 140.75944824 64.98130859 138.51889648 64.97167969 136.21044922 C64.93787567 128.79830492 64.88230776 121.38643803 64.81609726 113.97451591 C64.77662891 109.48169391 64.74443736 104.98906771 64.72900391 100.49609375 C64.71383297 96.15810775 64.67938002 91.82066008 64.63169098 87.48291397 C64.61688162 85.83001516 64.60895924 84.17703949 64.60811615 82.52407455 C64.60574329 80.20410882 64.57864093 77.88562697 64.54589844 75.56591797 C64.53701599 74.24687469 64.52813354 72.92783142 64.51898193 71.56881714 C63.91557757 67.41946302 62.60638651 65.24519187 60 62 C55.5749385 59.13672491 50.08067497 59.30482759 45 60 C37.37597154 62.36885349 31.02705385 67.07545861 27 74 C25.87109971 79.33213173 25.92503424 84.55592367 26 89.97265625 C25.99246977 91.50681102 25.98142548 93.04095217 25.96704102 94.57505798 C25.93876687 98.5851825 25.95778895 102.59369813 25.98712158 106.60375977 C26.00861173 110.70664639 25.98474151 114.80925167 25.96484375 118.91210938 C25.93250847 126.94193074 25.95440337 134.97024264 26 143 C17.42 143 8.84 143 0 143 C0 95.81 0 48.62 0 0 Z " fill="#FDFAF7" transform="translate(210,759)"/>
<path d="M0 0 C8.58 0 17.16 0 26 0 C26.33 16.83 26.66 33.66 27 51 C29.97 48.36 32.94 45.72 36 43 C45.64252589 36.43190265 54.51460254 36.06121584 66 37 C73.02856246 38.42032151 79.45865184 41.314821 84 47 C89.69363021 56.16661552 91.16958171 64.25290762 91.11352539 74.88476562 C91.11367142 75.6272052 91.11381744 76.36964478 91.1139679 77.13458252 C91.11327809 79.5585027 91.10552992 81.98234345 91.09765625 84.40625 C91.09578875 86.09875446 91.09436642 87.79125946 91.09336853 89.48376465 C91.08956948 93.91586832 91.07976177 98.34793869 91.06866455 102.7800293 C91.058394 107.31168162 91.05385887 111.84333937 91.04882812 116.375 C91.03813692 125.25001691 91.02056155 134.12500046 91 143 C82.42 143 73.84 143 65 143 C64.98541748 140.85556396 64.97083496 138.71112793 64.95581055 136.50170898 C64.90537817 129.40092315 64.83876798 122.30035461 64.76428509 115.19978237 C64.71963809 110.89647243 64.68036964 106.59325592 64.65356445 102.28979492 C64.62747464 98.13341681 64.58703258 93.97739933 64.53681374 89.82124519 C64.52018328 88.23894819 64.50864526 86.65658886 64.50238609 85.07421684 C64.49270297 82.85044806 64.46459574 80.62759396 64.43237305 78.40405273 C64.42126999 77.14052475 64.41016693 75.87699677 64.39872742 74.57518005 C63.81105494 69.30582856 62.38809533 65.38809533 58.5625 61.5625 C53.28423917 59.24747332 48.66877975 59.06472274 43 60 C39.21411661 61.50056723 36.10195501 63.36694517 33 66 C32.25064178 66.57609009 32.25064178 66.57609009 31.48614502 67.16381836 C27.23317412 71.08994041 26.53141335 74.50777149 26.22705078 80.22045898 C26.16478458 83.14672935 26.17630294 86.06938864 26.1953125 88.99609375 C26.18405213 90.55552719 26.17016702 92.11494369 26.15377808 93.67433167 C26.11783924 97.75976139 26.11735372 101.84444128 26.12445068 105.92999268 C26.12536562 110.10645847 26.09247643 114.28264627 26.0625 118.45898438 C26.00873078 126.63949051 25.99557203 134.81931815 26 143 C17.42 143 8.84 143 0 143 C0 95.81 0 48.62 0 0 Z " fill="#FDFBF9" transform="translate(592,759)"/>
<path d="M0 0 C2.17973329 2.10941931 2.77681715 2.87023063 2.9375 5.875 C1.20703125 8.27734375 1.20703125 8.27734375 -1.25 10.8125 C-4.35945817 14.06261218 -7.29874137 17.32341132 -10.0625 20.875 C-14.20158214 20.33289013 -16.48585833 19.05736058 -19.75 16.5 C-29.90323959 9.260428 -40.90744456 8.64116148 -53.0625 9.875 C-61.24461846 11.62607758 -68.73127066 16.52733766 -73.81640625 23.1640625 C-83.39551023 38.28896351 -85.15616781 55.67053419 -82.0625 73.0625 C-79.35104415 84.0101621 -73.91721008 95.75509561 -64.0625 101.875 C-53.01744069 107.77178373 -42.11627875 108.33682391 -30.0234375 104.98828125 C-22.56796416 102.18510196 -16.47015577 97.63153679 -11.0625 91.875 C-9.0625 91.875 -9.0625 91.875 -7.58203125 93.34375 C-7.01871094 94.0140625 -6.45539063 94.684375 -5.875 95.375 C-5.26140625 96.096875 -4.6478125 96.81875 -4.015625 97.5625 C-3.04882812 98.7071875 -3.04882812 98.7071875 -2.0625 99.875 C-0.75287735 101.37751281 0.55947391 102.87765323 1.875 104.375 C2.89583333 105.54166667 3.91666667 106.70833333 4.9375 107.875 C0.481342 117.9231994 -11.93142474 123.70812878 -21.54296875 127.9765625 C-39.9249811 134.60614072 -58.68108904 132.85283769 -76.25 124.8125 C-92.89853995 115.99856708 -103.77614525 100.82873782 -109.32421875 82.9921875 C-113.9192196 66.45989903 -115.6077949 44.67933391 -108.0625 28.875 C-107.76698242 28.22418457 -107.47146484 27.57336914 -107.16699219 26.90283203 C-98.65986599 8.3865796 -86.33872121 -4.60468051 -67.0625 -12.125 C-42.94329885 -19.23782267 -20.30255377 -14.08748629 0 0 Z " fill="#FDFBF9" transform="translate(193.0625,772.125)"/>
<path d="M0 0 C8.58 0 17.16 0 26 0 C26.01458252 2.14967285 26.02916504 4.2993457 26.04418945 6.51416016 C26.09458909 13.62692723 26.16119361 20.73947661 26.23571491 27.8520298 C26.28038955 32.16321559 26.31965198 36.47430752 26.34643555 40.78564453 C26.37249769 44.94850242 26.4129204 49.11099854 26.46318626 53.27363205 C26.47983536 54.85954657 26.49136182 56.44552363 26.49761391 58.03151321 C26.50727662 60.25788294 26.53535988 62.48333126 26.56762695 64.70947266 C26.57873001 65.97522125 26.58983307 67.24096985 26.60127258 68.54507446 C27.19070619 73.65244636 28.80419665 76.89169445 32.5625 80.375 C38.03700417 82.96294743 42.82654214 83.04024223 48.5859375 81.15234375 C51.3104812 79.91582007 53.55842409 78.74918871 56 77 C56.65024139 76.54625 57.30048279 76.0925 57.97042847 75.625 C61.62859201 72.62037748 63.71106345 70.31562229 64.74368286 65.61376953 C65.02170899 61.43122905 65.05775646 57.31328014 65 53.125 C65.00752808 51.589416 65.01857047 50.05384559 65.03295898 48.51831055 C65.06126441 44.49995347 65.04219005 40.4831995 65.01287842 36.46490479 C64.99140747 32.35540569 65.01525081 28.24618886 65.03515625 24.13671875 C65.06751403 16.0906228 65.04557224 8.04603231 65 0 C73.58 0 82.16 0 91 0 C91 33.99 91 67.98 91 103 C82.75 103 74.5 103 66 103 C65.67 99.04 65.34 95.08 65 91 C64.34 91 63.68 91 63 91 C62.7525 91.598125 62.505 92.19625 62.25 92.8125 C59.94948137 96.83840761 55.92327572 98.7215759 52 101 C51.31421875 101.42023438 50.6284375 101.84046875 49.921875 102.2734375 C41.35504347 106.61848515 30.33263655 106.26389565 21 105 C16.90941943 103.65859293 14.11464828 101.94558595 11 99 C10.41347656 98.44699219 9.82695312 97.89398437 9.22265625 97.32421875 C2.01625398 89.65970778 -0.16500286 81.49992217 -0.11352539 71.18041992 C-0.11367142 70.40915771 -0.11381744 69.63789551 -0.1139679 68.84326172 C-0.11327378 66.305635 -0.10550492 63.76808258 -0.09765625 61.23046875 C-0.09579029 59.46641581 -0.09436723 57.70236236 -0.09336853 55.93830872 C-0.08955738 51.3039506 -0.07973909 46.66962401 -0.06866455 42.03527832 C-0.05842026 37.30282009 -0.05386445 32.57035675 -0.04882812 27.83789062 C-0.03811554 18.5585777 -0.02053012 9.27929641 0 0 Z " fill="#FDFCFB" transform="translate(317,798)"/>
<path d="M0 0 C40.68278894 0 40.68278894 0 54.30078125 12.1796875 C63.71887616 22.26895699 65.50743301 34.28241212 65.375 47.5625 C65.38660156 48.72974609 65.39820313 49.89699219 65.41015625 51.09960938 C65.36754585 63.70518471 61.49803777 75.55628453 52.625 84.875 C51.44326492 85.94674675 50.2350863 86.99019768 49 88 C48.44054687 88.46019531 47.88109375 88.92039062 47.3046875 89.39453125 C33.5312405 99.26252034 16.02273119 97 0 97 C0 64.99 0 32.98 0 0 Z " fill="#FD5D03" transform="translate(727,782)"/>
<path d="M0 0 C2.13844574 1.64965814 3.76948279 3.07540956 4.859375 5.578125 C5.015625 7.640625 5.015625 7.640625 3.7578125 9.3515625 C3.14164063 9.90070312 2.52546875 10.44984375 1.890625 11.015625 C-1.37697281 14.04748429 -4.19093719 17.16999014 -6.984375 20.640625 C-10.38902758 20.01669545 -12.56216828 18.71024351 -15.359375 16.703125 C-22.38778615 11.94525576 -28.53812999 10.69147371 -36.984375 11.640625 C-43.27388135 13.44225032 -47.37062139 17.31621879 -50.984375 22.640625 C-51.39945313 23.24132812 -51.81453125 23.84203125 -52.2421875 24.4609375 C-56.84058599 32.66087886 -56.04391432 43.82031779 -54.40625 52.81640625 C-53.73276627 55.17718167 -52.94463074 57.3835753 -51.984375 59.640625 C-51.5925 60.6925 -51.200625 61.744375 -50.796875 62.828125 C-47.71637806 67.60820646 -43.4309974 71.8250842 -37.984375 73.640625 C-28.85550242 74.4716017 -21.61442176 73.97733067 -13.984375 68.640625 C-12.10135512 67.06076705 -10.5903081 65.51421362 -8.984375 63.640625 C-4.65932664 65.29926005 -1.89018675 68.511666 1.265625 71.765625 C1.81992187 72.32894531 2.37421875 72.89226562 2.9453125 73.47265625 C4.30666985 74.85748528 5.66177359 76.24845704 7.015625 77.640625 C-0.74162202 87.39915582 -10.13445947 94.41633322 -22.66796875 96.31640625 C-38.63351579 97.87723123 -50.49300611 96.38788023 -63.7421875 86.50390625 C-73.41116205 78.46888733 -80.19299425 67.14089221 -81.984375 54.640625 C-82.26748155 50.8646097 -82.31878971 47.11373475 -82.296875 43.328125 C-82.29123535 42.31137695 -82.2855957 41.29462891 -82.27978516 40.24707031 C-82.05352905 26.26399478 -78.40149448 13.78276292 -68.73828125 3.26171875 C-49.10907235 -14.88109126 -21.61204199 -14.80509963 0 0 Z " fill="#FDFBF9" transform="translate(573.984375,806.359375)"/>
<path d="M0 0 C0.10107708 8.42308989 0.04607394 16.63031083 -1 25 C-1.56396484 25.00410889 -2.12792969 25.00821777 -2.70898438 25.01245117 C-5.30699703 25.04569765 -7.90275923 25.1163677 -10.5 25.1875 C-11.386875 25.19330078 -12.27375 25.19910156 -13.1875 25.20507812 C-19.68869311 25.42019113 -24.11750774 26.61648772 -29 31 C-35.54101731 38.7565601 -35.87406306 46.40887939 -35.8046875 56.1953125 C-35.81595987 57.63835857 -35.82985015 59.08138632 -35.84622192 60.52438354 C-35.88201355 64.28920957 -35.8826653 68.05321953 -35.87554932 71.81817627 C-35.87463133 75.67320022 -35.90756653 79.52792651 -35.9375 83.3828125 C-35.99113042 90.92205525 -36.00443685 98.46052682 -36 106 C-44.91 106 -53.82 106 -63 106 C-63 71.68 -63 37.36 -63 2 C-54.42 2 -45.84 2 -37 2 C-36.67 6.29 -36.34 10.58 -36 15 C-34.700625 13.453125 -33.40125 11.90625 -32.0625 10.3125 C-22.10616473 -0.51962402 -14.08165305 -0.68357539 0 0 Z " fill="#FDF8F5" transform="translate(489,796)"/>
<path d="M0 0 C5.23875 -0.0825 10.4775 -0.165 15.875 -0.25 C17.50679199 -0.28641602 19.13858398 -0.32283203 20.81982422 -0.36035156 C29.54330409 -0.42662478 38.18454061 -0.45817949 44.95458984 5.80957031 C49.2452845 10.48724836 50.30018939 14.38541697 50.21875 20.65625 C49.69318042 26.28735262 46.9393328 31.0606672 43 35 C36.29505843 39.26417055 29.96274901 40.13257854 22.0703125 40.09765625 C20.90773926 40.09515869 19.74516602 40.09266113 18.54736328 40.09008789 C17.0879834 40.08098389 15.62860352 40.07187988 14.125 40.0625 C9.46375 40.041875 4.8025 40.02125 0 40 C0 26.8 0 13.6 0 0 Z " fill="#FC5C04" transform="translate(862,839)"/>
<path d="M0 0 C5.259375 -0.103125 10.51875 -0.20625 15.9375 -0.3125 C17.578396 -0.35802002 19.21929199 -0.40354004 20.90991211 -0.45043945 C28.95023536 -0.52664872 35.53200501 -0.34935955 42 5 C45.51034586 8.59596405 46.29255082 11.48891979 46.5625 16.375 C46.30475483 22.12349828 44.95478199 25.82633284 41 30 C32.9340091 36.01779367 24.47830795 35.59870472 14.875 35.3125 C9.96625 35.209375 5.0575 35.10625 0 35 C0 23.45 0 11.9 0 0 Z " fill="#FD5D05" transform="translate(862,782)"/>
<path d="M0 0 C0.66 0.33 1.32 0.66 2 1 C0.38113585 2.67262717 -1.2452729 4.33795537 -2.875 6 C-3.77992187 6.928125 -4.68484375 7.85625 -5.6171875 8.8125 C-8 11 -8 11 -10 11 C-8.55218207 7.55571735 -6.72305391 5.63869038 -3.875 3.25 C-3.15054688 2.63640625 -2.42609375 2.0228125 -1.6796875 1.390625 C-0.84824219 0.70226563 -0.84824219 0.70226563 0 0 Z " fill="#FA8C48" transform="translate(53,37)"/>
</svg>
